<?xml version="1.0" encoding="utf-8"?>
<!-- Generator: Adobe Illustrator 21.1.0, SVG Export Plug-In . SVG Version: 6.00 Build 0)  -->
<svg version="1.1" id="Capa_1" xmlns="http://www.w3.org/2000/svg" xmlns:xlink="http://www.w3.org/1999/xlink" x="0px" y="0px"
	 viewBox="0 0 230.6 230.6" style="enable-background:new 0 0 230.6 230.6;" xml:space="preserve">
<style type="text/css">
	.st0{fill:#FFFFFF;}
</style>
<g>
	<path class="st0" d="M184.8,125.4c0-4.1-3.4-7.5-7.5-7.5s-7.5,3.4-7.5,7.5c0,30-24.4,54.5-54.5,54.5s-54.5-24.4-54.5-54.5
		c0-4.1-3.4-7.5-7.5-7.5s-7.5,3.4-7.5,7.5c0,35.8,27.2,65.3,62,69v21.2H89.3c-4.1,0-7.5,3.4-7.5,7.5s3.4,7.5,7.5,7.5h51.9
		c4.1,0,7.5-3.4,7.5-7.5s-3.4-7.5-7.5-7.5h-18.5v-21.2C157.6,190.7,184.8,161.1,184.8,125.4z"/>
	<path class="st0" d="M115.3,171.1c23.4,0,42.5-19,42.5-42.5V42.5c0-23.4-19-42.5-42.5-42.5S72.9,19,72.9,42.5v86.2
		C72.9,152.1,91.9,171.1,115.3,171.1z M87.9,42.5c0-15.1,12.3-27.5,27.5-27.5s27.5,12.3,27.5,27.5v86.2c0,15.1-12.3,27.5-27.5,27.5
		s-27.5-12.3-27.5-27.5L87.9,42.5L87.9,42.5z"/>
</g>
</svg>
